<svg xmlns="http://www.w3.org/2000/svg" viewBox="0 0 348.38 107.22"><defs><style>.cls-1{fill:#e9138d;}.cls-2{fill:#fff;}</style></defs><title>Asset 98</title><g id="Layer_2" data-name="Layer 2"><g id="Layer_1-2" data-name="Layer 1"><rect class="cls-1" width="348.38" height="107.22" rx="20"/><path class="cls-2" d="M306.46,71.85l-8.78-8.79a6.87,6.87,0,0,0-6.93-1.69l-4.49-4.5a20.91,20.91,0,1,0-4.08,4.19l4.25,4.25a6.93,6.93,0,0,0,1.5,7.51l8.78,8.78a6.92,6.92,0,0,0,9.75,0h0A6.92,6.92,0,0,0,306.46,71.85Zm-37.08-11.7A15.63,15.63,0,1,1,285,44.52,15.65,15.65,0,0,1,269.38,60.15Z"/><path class="cls-2" d="M68.69,38.52h7V63H90.81V68.7H68.69Z"/><path class="cls-2" d="M99.18,38.52h7V68.7h-7Z"/><path class="cls-2" d="M145.78,38.52V68.7h-7V56.33H125.08V68.7h-7V38.52h7v11.9h13.71V38.52Z"/><path class="cls-2" d="M177.65,62.23h-14L161,68.7H153.8l13.46-30.18h6.89l13.5,30.18h-7.33Zm-2.2-5.3-4.79-11.56-4.78,11.56Z"/><path class="cls-2" d="M198.62,44.21H189V38.52h26.3v5.69H205.6V68.7h-7Z"/></g></g></svg>